<?xml version="1.0" standalone="no"?>
<!DOCTYPE svg PUBLIC "-//W3C//DTD SVG 20010904//EN"
 "http://www.w3.org/TR/2001/REC-SVG-20010904/DTD/svg10.dtd">
<svg version="1.0" xmlns="http://www.w3.org/2000/svg"
 width="1200.000000pt" height="1200.000000pt" viewBox="0 0 1200.000000 1200.000000"
 preserveAspectRatio="xMidYMid meet">

<g transform="translate(0.000000,1200.000000) scale(0.100000,-0.100000)"
fill="#000000" stroke="none">
<path d="M5745 11244 c-1047 -58 -2029 -408 -2864 -1022 -478 -351 -940 -841
-1273 -1348 -707 -1077 -991 -2384 -797 -3664 244 -1608 1214 -3003 2644
-3800 623 -348 1299 -558 2040 -635 212 -22 605 -30 813 -16 1223 80 2297 532
3218 1354 640 571 1164 1368 1442 2192 196 579 285 1151 277 1765 -5 370 -37
668 -106 995 -338 1604 -1370 2931 -2844 3655 -559 274 -1172 446 -1805 505
-162 15 -607 26 -745 19z m550 -229 c841 -37 1738 -335 2471 -821 301 -200
527 -385 799 -658 766 -767 1255 -1747 1409 -2826 61 -429 65 -917 10 -1350
-157 -1238 -776 -2378 -1734 -3191 -791 -671 -1789 -1090 -2795 -1173 -935
-77 -1826 84 -2640 478 -807 391 -1489 984 -1990 1731 -145 217 -224 353 -340
590 -262 535 -408 1040 -480 1652 -18 157 -37 576 -30 683 2 41 7 125 10 185
22 433 130 961 288 1395 96 266 267 629 407 860 601 998 1525 1763 2601 2153
244 89 510 162 764 211 423 81 752 102 1250 81z"/>
<path d="M6442 7560 c-47 -19 -92 -64 -118 -116 -23 -46 -26 -63 -21 -110 7
-70 45 -136 99 -172 37 -24 51 -27 122 -27 73 0 85 3 124 29 50 34 88 94 98
152 14 91 -43 197 -129 237 -38 18 -137 22 -175 7z"/>
<path d="M6120 7118 c-177 -16 -362 -76 -489 -157 -88 -57 -92 -45 74 -211
l149 -150 189 -2 189 -3 92 -205 c104 -234 118 -250 212 -250 42 0 59 5 84 26
39 33 60 74 60 116 0 30 -250 613 -322 749 -46 88 -85 102 -238 87z"/>
<path d="M5340 6439 c-70 -28 -110 -106 -90 -178 12 -47 66 -98 112 -106 18
-3 164 -5 325 -3 276 3 293 4 319 24 51 37 68 70 67 125 -1 55 -18 87 -67 123
-26 20 -42 21 -334 23 -190 1 -317 -2 -332 -8z"/>
<path d="M3898 5517 c-103 -30 -153 -100 -164 -230 l-7 -77 -63 0 -64 0 0 -65
0 -65 65 0 65 0 0 -230 0 -230 95 0 95 0 0 230 0 230 93 0 94 0 9 65 10 65
-103 0 -103 0 0 64 c0 93 17 111 107 111 37 0 83 -4 101 -8 32 -9 33 -8 57 47
14 31 25 58 25 60 0 2 -21 11 -47 20 -66 23 -206 29 -265 13z"/>
<path d="M7985 5514 c-11 -2 -46 -6 -77 -9 l-58 -6 0 -445 0 -444 95 0 95 0 0
224 0 224 40 36 c45 41 87 47 113 18 15 -16 17 -49 17 -260 l0 -242 95 0 95 0
0 263 c0 237 -2 266 -20 304 -20 46 -64 79 -119 89 -49 10 -132 -12 -180 -47
l-41 -31 0 166 c0 181 4 169 -55 160z"/>
<path d="M2840 5435 l0 -65 95 0 95 0 0 -301 c0 -326 4 -355 52 -413 54 -66
195 -85 305 -41 l41 16 -20 60 -20 59 -63 -6 c-59 -6 -65 -5 -89 19 l-26 26 0
356 0 355 -185 0 -185 0 0 -65z"/>
<path d="M7322 5444 c-69 -18 -103 -36 -142 -76 -43 -42 -60 -85 -60 -148 0
-123 60 -184 242 -249 149 -52 168 -67 168 -133 0 -38 -27 -74 -67 -89 -62
-23 -182 -2 -253 45 l-39 25 -45 -50 c-25 -28 -46 -55 -46 -59 0 -14 90 -69
147 -90 109 -41 273 -36 364 10 98 50 141 120 141 229 0 140 -66 205 -279 275
-94 31 -133 62 -133 104 0 90 157 110 274 35 21 -14 42 -21 46 -16 5 4 24 28
44 52 34 40 35 45 21 61 -23 25 -123 68 -185 80 -71 13 -134 12 -198 -6z"/>
<path d="M2200 5025 l0 -415 270 0 270 0 0 70 0 70 -170 0 c-106 0 -170 4
-171 10 0 6 -1 48 -1 95 0 47 1 90 1 95 1 6 55 10 141 10 l140 0 0 70 0 69
-142 3 -142 3 1 88 c1 48 2 92 2 97 1 6 61 10 160 10 l159 0 7 43 c3 23 8 54
11 70 l6 27 -271 0 -271 0 0 -415z"/>
<path d="M4261 5303 c21 -76 74 -262 117 -413 l79 -275 120 -3 120 -3 117 410
c64 226 116 413 116 416 0 3 -44 5 -97 5 l-98 0 -75 -330 c-41 -181 -77 -327
-81 -322 -5 6 -149 629 -149 646 0 4 -47 6 -104 6 l-104 0 39 -137z"/>
<path d="M5150 5256 c-77 -17 -120 -32 -120 -44 0 -8 31 -104 35 -110 1 -1 33
5 71 14 134 31 212 6 229 -73 l7 -33 -70 0 c-142 0 -244 -35 -292 -101 -68
-95 -38 -239 62 -290 84 -43 201 -34 279 23 l41 30 29 -28 c15 -15 50 -32 76
-39 l48 -12 21 61 c20 60 20 61 1 76 -17 15 -19 32 -22 192 -2 97 -8 192 -14
210 -14 43 -64 92 -115 113 -53 22 -186 28 -266 11z m220 -404 c0 -74 -48
-122 -122 -122 -53 0 -78 24 -78 74 0 66 42 94 143 95 l57 1 0 -48z"/>
<path d="M6016 5260 c-36 -11 -106 -59 -106 -74 0 -21 -20 19 -20 42 0 22 -2
23 -82 20 l-83 -3 -3 -447 -2 -448 27 0 c16 0 58 3 96 7 l67 6 0 144 0 143 38
-25 c124 -82 282 -10 331 150 29 92 29 238 1 329 -40 130 -145 191 -264 156z
m52 -153 c13 -13 27 -39 32 -58 13 -45 13 -184 -1 -233 -23 -84 -97 -112 -158
-60 l-31 26 0 140 0 140 34 34 c42 42 91 46 124 11z"/>
<path d="M6639 5264 c-41 -8 -129 -65 -161 -104 -45 -56 -68 -137 -68 -234 0
-149 54 -247 168 -303 51 -25 68 -28 157 -28 95 0 105 2 170 35 38 19 71 40
72 46 2 6 -12 31 -31 56 l-35 46 -43 -21 c-23 -12 -67 -23 -99 -25 -91 -7
-150 32 -166 108 l-5 30 206 0 206 0 0 55 c0 207 -104 334 -280 341 -36 1 -77
0 -91 -2z m130 -138 c30 -16 46 -45 56 -100 l7 -36 -120 0 c-135 0 -126 -7
-100 78 18 61 96 89 157 58z"/>
<path d="M8747 5256 c-27 -7 -67 -26 -90 -43 -152 -106 -170 -415 -31 -543 66
-60 104 -74 209 -75 79 0 97 3 147 28 63 31 107 79 135 148 14 34 18 71 18
159 0 99 -3 122 -23 166 -28 61 -92 127 -146 149 -53 23 -160 28 -219 11z
m142 -140 c39 -21 54 -59 59 -161 7 -151 -28 -225 -108 -225 -79 0 -114 61
-114 200 0 47 6 102 13 122 23 69 87 96 150 64z"/>
<path d="M9566 5260 c-36 -11 -106 -59 -106 -74 0 -21 -20 19 -20 42 0 22 -2
23 -82 20 l-83 -3 -3 -447 -2 -448 27 0 c16 0 58 3 96 7 l67 6 0 144 0 143 38
-25 c124 -82 282 -10 331 150 29 92 29 238 1 329 -40 130 -145 191 -264 156z
m52 -153 c13 -13 27 -39 32 -58 13 -45 13 -184 -1 -233 -23 -84 -97 -112 -158
-60 l-31 26 0 140 0 140 34 34 c42 42 91 46 124 11z"/>
</g>
</svg>
