<?xml version="1.0" standalone="no"?>
<!DOCTYPE svg PUBLIC "-//W3C//DTD SVG 20010904//EN"
 "http://www.w3.org/TR/2001/REC-SVG-20010904/DTD/svg10.dtd">
<svg version="1.0" xmlns="http://www.w3.org/2000/svg"
 width="350.000000pt" height="200.000000pt" viewBox="0 0 350.000000 200.000000"
 preserveAspectRatio="xMidYMid meet">

<g transform="translate(0.000000,200.000000) scale(0.100000,-0.100000)"
fill="#000000" stroke="none">
<path d="M1920 1713 c-63 -24 -83 -111 -35 -158 57 -58 155 -16 155 65 0 64
-65 115 -120 93z"/>
<path d="M1705 1515 c-48 -11 -126 -46 -153 -68 -10 -8 1 -24 50 -74 l62 -63
83 0 c46 0 83 -4 83 -9 0 -20 73 -166 88 -178 10 -7 24 -13 33 -13 28 0 62 34
62 64 0 32 -130 326 -153 343 -19 15 -89 15 -155 -2z"/>
<path d="M1448 1239 c-31 -17 -41 -47 -28 -79 15 -36 30 -40 175 -40 141 0
165 10 165 65 0 56 -24 65 -170 65 -69 0 -133 -5 -142 -11z"/>
<path d="M818 843 c-24 -28 -38 -60 -38 -87 0 -21 -5 -26 -25 -26 -20 0 -25
-5 -25 -25 0 -20 5 -25 25 -25 l25 0 0 -100 0 -100 45 0 45 0 0 99 0 100 38 3
c30 2 38 7 40 26 3 20 -1 22 -37 22 -39 0 -41 2 -41 30 0 36 22 50 66 40 30
-7 34 -5 43 20 12 35 2 40 -83 40 -47 0 -67 -4 -78 -17z"/>
<path d="M2500 670 l0 -190 40 0 40 0 0 94 c0 86 2 95 23 108 41 27 47 14 47
-98 l0 -104 40 0 40 0 0 119 c0 117 -1 120 -26 140 -31 25 -63 27 -90 6 -31
-23 -34 -19 -34 50 l0 65 -40 0 -40 0 0 -190z"/>
<path d="M410 825 c0 -22 4 -25 40 -25 l40 0 0 -130 c0 -143 8 -173 51 -190
35 -15 119 -5 119 14 0 21 -26 49 -41 44 -8 -3 -22 -1 -31 4 -16 8 -18 26 -18
158 l0 150 -80 0 c-79 0 -80 0 -80 -25z"/>
<path d="M150 655 l0 -175 110 0 110 0 0 30 0 30 -70 0 -70 0 0 45 0 45 60 0
c57 0 60 1 60 25 0 24 -3 25 -60 25 l-60 0 0 45 0 45 70 0 70 0 0 30 0 30
-110 0 -110 0 0 -175z"/>
<path d="M994 808 c3 -13 17 -63 31 -113 14 -49 33 -118 42 -152 l17 -63 52 0
c59 0 53 -9 93 140 11 41 29 105 40 143 l20 67 -44 0 -43 0 -21 -97 c-12 -54
-27 -116 -33 -138 l-11 -40 -17 80 c-9 44 -23 106 -31 138 l-14 57 -43 0 c-41
0 -44 -2 -38 -22z"/>
<path d="M2232 805 c-37 -31 -46 -65 -28 -108 11 -28 26 -39 82 -63 87 -36 95
-45 70 -79 -17 -23 -78 -23 -114 1 -24 16 -26 15 -43 -7 -24 -31 -24 -32 9
-51 95 -56 231 -19 248 66 9 53 -16 90 -83 121 -84 38 -88 40 -88 60 0 26 44
35 91 19 33 -11 41 -11 56 3 24 22 23 26 -11 46 -19 11 -51 17 -94 17 -55 0
-70 -4 -95 -25z"/>
<path d="M1355 747 c-23 -9 -30 -17 -27 -32 6 -31 14 -35 52 -26 42 9 80 -2
80 -24 0 -11 -11 -15 -37 -15 -94 -2 -146 -67 -108 -135 11 -22 28 -36 45 -40
33 -7 98 3 106 17 3 5 10 5 17 0 7 -5 22 -12 35 -15 18 -4 26 0 34 19 9 18 8
28 0 36 -7 7 -12 43 -12 86 0 40 -5 82 -10 93 -24 44 -109 61 -175 36z m105
-170 c0 -43 -44 -63 -70 -32 -10 13 -10 19 5 35 26 29 65 27 65 -3z"/>
<path d="M1721 744 c-17 -12 -26 -13 -34 -5 -6 6 -26 11 -44 11 l-33 0 0 -190
0 -190 29 0 c54 0 61 8 61 66 0 53 1 54 21 43 12 -6 36 -8 55 -5 45 9 76 55
82 121 10 120 -64 200 -137 149z m52 -99 c3 -20 1 -53 -6 -73 -10 -30 -17 -37
-37 -37 -24 0 -25 3 -28 70 -2 56 0 72 14 82 25 18 50 0 57 -42z"/>
<path d="M1958 735 c-45 -30 -63 -79 -55 -148 8 -65 43 -104 102 -112 42 -7
120 8 130 25 9 15 -18 51 -35 44 -42 -16 -81 -16 -100 1 -40 36 -26 45 65 45
l85 0 0 38 c0 70 -60 132 -127 132 -16 0 -45 -11 -65 -25z m100 -47 c7 -7 12
-20 12 -30 0 -15 -8 -18 -45 -18 -49 0 -56 11 -28 42 19 21 44 23 61 6z"/>
<path d="M2849 740 c-104 -55 -83 -246 31 -265 89 -15 149 29 158 113 6 69
-12 117 -56 147 -43 30 -84 31 -133 5z m101 -71 c27 -49 0 -139 -40 -139 -27
0 -40 30 -40 89 0 39 4 53 21 65 24 17 45 12 59 -15z"/>
<path d="M3198 745 c-17 -10 -29 -11 -33 -5 -3 5 -22 10 -41 10 l-34 0 0 -190
0 -190 29 0 c53 0 61 8 61 59 l0 47 51 0 c45 -1 54 3 74 28 46 58 40 190 -10
234 -30 25 -59 27 -97 7z m55 -100 c3 -20 1 -53 -6 -73 -10 -30 -17 -37 -37
-37 -24 0 -25 3 -28 70 -2 56 0 72 14 82 25 18 50 0 57 -42z"/>
</g>
</svg>
